<mxfile host="app.diagrams.net" modified="2024-06-22T10:21:00.812Z" agent="Mozilla/5.0 (Macintosh; Intel Mac OS X 10_15_7) AppleWebKit/537.36 (KHTML, like Gecko) Chrome/124.0.0.0 Safari/537.36" etag="_ITmnL15gy-Uostl9bm2" version="24.6.1" type="github">
  <diagram name="第 1 页" id="rGw42DEsiBUozZV5euj-">
    <mxGraphModel dx="2420" dy="840" grid="1" gridSize="10" guides="1" tooltips="1" connect="1" arrows="1" fold="1" page="1" pageScale="1" pageWidth="827" pageHeight="1169" math="0" shadow="0">
      <root>
        <mxCell id="0" />
        <mxCell id="1" parent="0" />
        <mxCell id="0yUii9oryXIb9BvwYovy-36" value="" style="rounded=0;whiteSpace=wrap;html=1;" vertex="1" parent="1">
          <mxGeometry x="-370" y="260" width="990" height="450" as="geometry" />
        </mxCell>
        <mxCell id="0yUii9oryXIb9BvwYovy-6" style="edgeStyle=orthogonalEdgeStyle;rounded=0;orthogonalLoop=1;jettySize=auto;html=1;exitX=0.25;exitY=1;exitDx=0;exitDy=0;entryX=0.25;entryY=0;entryDx=0;entryDy=0;strokeColor=#000099;" edge="1" parent="1" source="0yUii9oryXIb9BvwYovy-3" target="0yUii9oryXIb9BvwYovy-4">
          <mxGeometry relative="1" as="geometry" />
        </mxCell>
        <mxCell id="0yUii9oryXIb9BvwYovy-3" value="mq" style="rounded=1;whiteSpace=wrap;html=1;" vertex="1" parent="1">
          <mxGeometry x="71" y="50" width="200" height="60" as="geometry" />
        </mxCell>
        <mxCell id="0yUii9oryXIb9BvwYovy-10" style="edgeStyle=orthogonalEdgeStyle;rounded=0;orthogonalLoop=1;jettySize=auto;html=1;exitX=0;exitY=0.25;exitDx=0;exitDy=0;entryX=0.5;entryY=0;entryDx=0;entryDy=0;strokeColor=#000099;" edge="1" parent="1" source="0yUii9oryXIb9BvwYovy-4" target="0yUii9oryXIb9BvwYovy-9">
          <mxGeometry relative="1" as="geometry">
            <mxPoint x="120" y="457" as="sourcePoint" />
          </mxGeometry>
        </mxCell>
        <mxCell id="0yUii9oryXIb9BvwYovy-14" style="edgeStyle=orthogonalEdgeStyle;rounded=0;orthogonalLoop=1;jettySize=auto;html=1;exitX=0;exitY=0.75;exitDx=0;exitDy=0;entryX=0.5;entryY=0;entryDx=0;entryDy=0;strokeColor=#000099;" edge="1" parent="1" source="0yUii9oryXIb9BvwYovy-4" target="0yUii9oryXIb9BvwYovy-13">
          <mxGeometry relative="1" as="geometry" />
        </mxCell>
        <mxCell id="0yUii9oryXIb9BvwYovy-4" value="judge-center" style="rounded=1;whiteSpace=wrap;html=1;" vertex="1" parent="1">
          <mxGeometry x="70" y="370" width="200" height="90" as="geometry" />
        </mxCell>
        <mxCell id="0yUii9oryXIb9BvwYovy-7" value="&lt;div&gt;判题&lt;/div&gt;&lt;div&gt;&lt;br&gt;&lt;/div&gt;&lt;div&gt;topic - judge&lt;/div&gt;&lt;div&gt;&lt;br&gt;&lt;/div&gt;批量消费 - 64个一批" style="text;html=1;align=center;verticalAlign=middle;whiteSpace=wrap;rounded=0;" vertex="1" parent="1">
          <mxGeometry x="-15" y="180" width="130" height="40" as="geometry" />
        </mxCell>
        <mxCell id="0yUii9oryXIb9BvwYovy-9" value="" style="rounded=1;whiteSpace=wrap;html=1;" vertex="1" parent="1">
          <mxGeometry x="-265" y="572" width="160" height="85" as="geometry" />
        </mxCell>
        <mxCell id="0yUii9oryXIb9BvwYovy-13" value="" style="rounded=1;whiteSpace=wrap;html=1;" vertex="1" parent="1">
          <mxGeometry x="-30" y="573" width="160" height="85" as="geometry" />
        </mxCell>
        <mxCell id="0yUii9oryXIb9BvwYovy-15" value="&lt;div&gt;同一个判题请求&lt;/div&gt;&lt;div&gt;&lt;span style=&quot;background-color: initial;&quot;&gt;case太多会分批&lt;/span&gt;&lt;/div&gt;&lt;div&gt;&lt;br&gt;&lt;/div&gt;case标号：1到64" style="text;html=1;align=center;verticalAlign=middle;whiteSpace=wrap;rounded=0;" vertex="1" parent="1">
          <mxGeometry x="-210" y="400" width="150" height="60" as="geometry" />
        </mxCell>
        <mxCell id="0yUii9oryXIb9BvwYovy-18" value="判题沙箱进程&lt;div&gt;一个case一个协程并发&lt;div&gt;最多并发64，&lt;span style=&quot;background-color: initial;&quot;&gt;超过64排队&lt;/span&gt;&lt;/div&gt;&lt;/div&gt;" style="text;html=1;align=center;verticalAlign=middle;whiteSpace=wrap;rounded=0;" vertex="1" parent="1">
          <mxGeometry x="-255" y="587" width="140" height="55" as="geometry" />
        </mxCell>
        <mxCell id="0yUii9oryXIb9BvwYovy-19" value="判题沙箱进程&lt;div&gt;一个case一个协程并发&lt;div&gt;最多并发64，&lt;span style=&quot;background-color: initial;&quot;&gt;超过64排队&lt;/span&gt;&lt;/div&gt;&lt;/div&gt;" style="text;html=1;align=center;verticalAlign=middle;whiteSpace=wrap;rounded=0;" vertex="1" parent="1">
          <mxGeometry x="-20" y="583" width="140" height="55" as="geometry" />
        </mxCell>
        <mxCell id="0yUii9oryXIb9BvwYovy-20" style="edgeStyle=orthogonalEdgeStyle;rounded=0;orthogonalLoop=1;jettySize=auto;html=1;exitX=0.75;exitY=1;exitDx=0;exitDy=0;entryX=0.75;entryY=0;entryDx=0;entryDy=0;strokeColor=#CC0066;" edge="1" parent="1" target="0yUii9oryXIb9BvwYovy-4" source="0yUii9oryXIb9BvwYovy-3">
          <mxGeometry relative="1" as="geometry">
            <mxPoint x="960" y="290" as="sourcePoint" />
            <mxPoint x="720" y="371" as="targetPoint" />
          </mxGeometry>
        </mxCell>
        <mxCell id="0yUii9oryXIb9BvwYovy-21" style="edgeStyle=orthogonalEdgeStyle;rounded=0;orthogonalLoop=1;jettySize=auto;html=1;exitX=1;exitY=0.5;exitDx=0;exitDy=0;entryX=0.5;entryY=0;entryDx=0;entryDy=0;strokeColor=#CC0066;" edge="1" parent="1" source="0yUii9oryXIb9BvwYovy-4" target="0yUii9oryXIb9BvwYovy-25">
          <mxGeometry relative="1" as="geometry">
            <mxPoint x="720" y="461" as="sourcePoint" />
          </mxGeometry>
        </mxCell>
        <mxCell id="0yUii9oryXIb9BvwYovy-24" value="&lt;div&gt;运行&lt;/div&gt;&lt;div&gt;&lt;br&gt;&lt;/div&gt;&lt;div&gt;topic - runCode&lt;/div&gt;&lt;div&gt;&lt;br&gt;&lt;/div&gt;批量消费 - 64个一批" style="text;html=1;align=center;verticalAlign=middle;whiteSpace=wrap;rounded=0;" vertex="1" parent="1">
          <mxGeometry x="223" y="170" width="130" height="40" as="geometry" />
        </mxCell>
        <mxCell id="0yUii9oryXIb9BvwYovy-25" value="" style="rounded=1;whiteSpace=wrap;html=1;" vertex="1" parent="1">
          <mxGeometry x="353" y="568" width="160" height="85" as="geometry" />
        </mxCell>
        <mxCell id="0yUii9oryXIb9BvwYovy-27" value="最多有一个case&lt;div&gt;&lt;/div&gt;" style="text;html=1;align=center;verticalAlign=middle;whiteSpace=wrap;rounded=0;" vertex="1" parent="1">
          <mxGeometry x="300" y="450" width="150" height="40" as="geometry" />
        </mxCell>
        <mxCell id="0yUii9oryXIb9BvwYovy-29" value="判题沙箱进程&lt;div&gt;一个case一个协程并发&lt;div&gt;最多并发64，&lt;span style=&quot;background-color: initial;&quot;&gt;超过64排队&lt;/span&gt;&lt;/div&gt;&lt;/div&gt;" style="text;html=1;align=center;verticalAlign=middle;whiteSpace=wrap;rounded=0;" vertex="1" parent="1">
          <mxGeometry x="363" y="583" width="140" height="55" as="geometry" />
        </mxCell>
        <mxCell id="0yUii9oryXIb9BvwYovy-31" value="&lt;div&gt;同一个判题请求&lt;/div&gt;&lt;div&gt;&lt;span style=&quot;background-color: initial;&quot;&gt;case太多会分批&lt;/span&gt;&lt;/div&gt;&lt;div&gt;&lt;br&gt;&lt;/div&gt;case标号：65到128" style="text;html=1;align=center;verticalAlign=middle;whiteSpace=wrap;rounded=0;" vertex="1" parent="1">
          <mxGeometry x="-80" y="484" width="150" height="40" as="geometry" />
        </mxCell>
        <mxCell id="0yUii9oryXIb9BvwYovy-37" value="&lt;font style=&quot;font-size: 36px;&quot;&gt;pod&lt;/font&gt;" style="text;html=1;align=center;verticalAlign=middle;whiteSpace=wrap;rounded=0;fontFamily=Helvetica;fontSize=12;fontColor=default;" vertex="1" parent="1">
          <mxGeometry x="-315" y="280" width="60" height="30" as="geometry" />
        </mxCell>
        <mxCell id="0yUii9oryXIb9BvwYovy-38" style="edgeStyle=orthogonalEdgeStyle;rounded=0;orthogonalLoop=1;jettySize=auto;html=1;exitX=0.75;exitY=0;exitDx=0;exitDy=0;entryX=0.714;entryY=0.006;entryDx=0;entryDy=0;entryPerimeter=0;fontFamily=Helvetica;fontSize=12;fontColor=default;" edge="1" parent="1" source="0yUii9oryXIb9BvwYovy-4" target="0yUii9oryXIb9BvwYovy-4">
          <mxGeometry relative="1" as="geometry" />
        </mxCell>
      </root>
    </mxGraphModel>
  </diagram>
</mxfile>
